<svg
  xmlns="http://www.w3.org/2000/svg"
  width="127"
  height="30"
  viewBox="0 0 71 23"
  fill="none"
>
  <g clip-path="url(#clip0)">
    <path
      d="M0 14.6576C0 9.93396 2.7615 6.51025 6.71472 6.51025C9.82185 6.51025 11.3592 8.44977 11.3592 10.4762C11.3592 12.3219 10.4483 13.1422 9.54102 13.2916C9.63463 13.0483 9.66704 12.8085 9.66704 12.5652C9.66704 11.9291 9.3214 11.0497 8.50771 11.0497C7.40959 11.0497 6.75072 12.5026 6.75072 13.9555C6.75072 16.3191 7.81644 17.772 9.41861 17.772C11.1108 17.772 12.5257 15.9263 12.5257 12.7146V6.96211H19.2693V22.7112H13.433C12.5869 22.7112 12.5221 22.4991 12.5221 22.1064C12.5221 21.0775 15.0316 19.5933 15.0316 15.9576H14.2791C14.2791 18.1369 12.2089 23.0136 7.18997 23.0136C1.75699 23.017 0 18.5332 0 14.6576Z"
      fill="#FF6600"
    />
    <path
      d="M50.4126 14.6576C50.4126 9.93396 53.1741 6.51025 57.1273 6.51025C60.2344 6.51025 61.7718 8.44977 61.7718 10.4762C61.7718 12.3219 60.8609 13.1422 59.9536 13.2916C60.0472 13.0483 60.0796 12.8085 60.0796 12.5652C60.0796 11.9291 59.734 11.0497 58.9203 11.0497C57.8222 11.0497 57.1633 12.5339 57.1633 14.2892C57.1633 16.6528 58.229 17.772 59.8312 17.772C61.6818 17.772 63.0932 15.8637 63.0932 12.7146V0H69.6819V22.7146H63.8456C62.9995 22.7146 62.9347 22.5026 62.9347 22.1098C62.9347 21.081 65.4442 19.5968 65.4442 15.9611H64.6917C64.6917 18.1404 62.6215 23.017 57.6026 23.017C52.1768 23.017 50.4198 18.4741 50.4198 14.6576H50.4126Z"
      fill="#FF6600"
    />
    <path
      d="M46.5529 6.6632C39.9138 6.6632 39.255 12.6625 40.7527 16.9482C40.9759 16.7397 41.0696 16.5902 41.0696 16.5902C41.1524 17.3862 41.3072 18.203 41.3072 18.203C40.3819 18.1821 39.7338 17.6191 39.7338 17.6191C39.8742 17.553 40.0002 17.4835 40.1155 17.4175L37.0191 6.9656C30.7436 6.93432 29.7427 12.659 31.2477 17.4453H30.4304L27.4817 6.9656H21.145L25.5375 22.9545H33.7896C34.6357 22.9545 34.7005 22.8641 34.7005 22.4991C34.7005 19.781 33.3647 17.9041 34.3944 14.0528C33.6888 13.9347 33.2711 14.0007 33.2711 14.0007C34.4412 12.7529 35.4998 12.2385 35.4998 12.2385C35.831 13.3194 35.9714 14.5256 35.9714 14.5256C35.7014 14.4109 35.4494 14.3205 35.2117 14.2475C35.2009 19.1832 38.5421 22.951 40.5295 22.951H45.4224C46.2073 22.951 46.3333 22.5582 46.3333 22.1342C46.3333 21.015 44.6375 17.772 44.6087 15.3215C44.5763 13.6844 45.2352 12.5965 46.6466 12.5965C47.2118 12.5965 47.8995 12.8085 47.8995 12.8085L49.6565 6.90304C49.6565 6.90304 48.3711 6.65973 46.5493 6.65973L46.5529 6.6632Z"
      fill="#FF6600"
    />
  </g>
  <defs>
    <clipPath id="clip0">
      <rect width="71" height="23" fill="white" />
    </clipPath>
  </defs>
</svg>
